<svg width="50" height="50" viewBox="0 0 50 50" fill="none" xmlns="http://www.w3.org/2000/svg">
<path d="M25 0C11.1925 0 0 11.1925 0 25C0 38.8075 11.1925 50 25 50C38.8075 50 50 38.8075 50 25C50 11.1925 38.8075 0 25 0ZM25 3.6225C30.4462 3.6225 35.4175 5.66 39.1925 9.0125C36.4187 12.6712 32.205 15.1075 27.9825 16.7562C25.5922 12.4029 22.9133 8.21441 19.9637 4.21875C21.6134 3.82112 23.3044 3.62097 25.0012 3.6225H25ZM15.905 5.6475C18.6925 9.8175 21.3925 13.6837 23.8587 18.06C17.6212 19.6762 10.5725 20.6462 4.06125 20.6625C5.43375 14.0025 9.9075 8.4725 15.905 5.64875V5.6475ZM41.5637 11.485C44.6528 15.2599 46.3521 19.9811 46.3775 24.8587C41.4325 23.8837 36.515 23.6287 31.5075 24.1337C30.945 22.73 30.2625 21.3962 29.6087 19.9587C33.925 18.2175 38.54 15.2375 41.5637 11.4837V11.485ZM25.595 21.3675C26.13 22.505 26.75 23.7125 27.3325 24.9463C20.37 28.0163 12.9637 32.1187 9.12 39.3112C5.43001 35.2278 3.4635 29.8748 3.6325 24.3738C11.0887 24.3388 18.4075 23.4062 25.595 21.3675ZM36.8925 27.1962C40.0035 27.1969 43.1016 27.596 46.1112 28.3837C45.6472 31.279 44.5924 34.0479 43.0125 36.5181C41.4326 38.9883 39.3613 41.107 36.9275 42.7425C35.78 37.5237 34.6862 32.53 32.7525 27.495C34.123 27.2953 35.5062 27.195 36.8912 27.195L36.8925 27.1962ZM46.2225 27.5837C46.2075 27.7062 46.1937 27.8262 46.1762 27.9462C46.1937 27.825 46.2087 27.705 46.2225 27.5837ZM28.7975 28.4712C30.7675 33.5625 32.3137 39.2 33.3512 44.6862C30.7102 45.8068 27.8701 46.3825 25.0012 46.3787C20.2486 46.3855 15.6303 44.8014 11.8825 41.8787C15.7537 35.5987 21.75 30.8462 28.7963 28.4725L28.7975 28.4712Z" fill="black"/>
</svg>
