<svg width="51" height="50" viewBox="0 0 51 50" fill="none" xmlns="http://www.w3.org/2000/svg">
<path fill-rule="evenodd" clip-rule="evenodd" d="M25.5 0C11.4112 0 0 11.4705 0 25.6323C0 36.9747 7.29937 46.5547 17.4356 49.951C18.7106 50.1753 19.1887 49.4063 19.1887 48.7335C19.1887 48.1247 19.1569 46.1062 19.1569 43.9595C12.75 45.145 11.0925 42.3895 10.5825 40.9477C10.2956 40.2107 9.0525 37.9359 7.96875 37.3271C7.07625 36.8465 5.80125 35.661 7.93687 35.629C9.945 35.5969 11.3794 37.4873 11.8575 38.2563C14.1525 42.1332 17.8181 41.0438 19.2844 40.3709C19.5075 38.7048 20.1769 37.5834 20.91 36.9426C15.2363 36.3018 9.3075 34.091 9.3075 24.2866C9.3075 21.4991 10.2956 19.1922 11.9213 17.398C11.6663 16.7571 10.7737 14.1298 12.1763 10.6054C12.1763 10.6054 14.3119 9.93253 19.1887 13.2327C21.2287 12.656 23.3962 12.3676 25.5637 12.3676C27.7312 12.3676 29.8987 12.656 31.9387 13.2327C36.8156 9.90049 38.9512 10.6054 38.9512 10.6054C40.3537 14.1298 39.4613 16.7571 39.2063 17.398C40.8319 19.1922 41.82 21.4671 41.82 24.2866C41.82 34.1231 35.8594 36.3018 30.1856 36.9426C31.11 37.7436 31.9069 39.2816 31.9069 41.6846C31.9069 45.1129 31.875 47.8684 31.875 48.7335C31.875 49.4063 32.3531 50.2074 33.6281 49.951C38.6903 48.2331 43.089 44.9627 46.2053 40.6003C49.3216 36.2378 50.9985 31.0029 51 25.6323C51 11.4705 39.5888 0 25.5 0Z" fill="black"/>
</svg>
